<svg xmlns="http://www.w3.org/2000/svg" viewBox="0 0 24.17 27.95"><title>discovery</title><g id="Layer_2" data-name="Layer 2"><g id="Layer_1-2" data-name="Layer 1"><path d="M17.83,2.3A15.47,15.47,0,0,0,11.67.2,21.48,21.48,0,0,0,8.73,0H.57V7.07L3.37,4.72V2.53h4a26.54,26.54,0,0,1,4.27.29,12.29,12.29,0,0,1,5,1.87,11.52,11.52,0,0,1,4.76,9.25,12,12,0,0,1-.55,3.65,11.4,11.4,0,0,1-.83,2,12.74,12.74,0,0,1-3,3.61,12.31,12.31,0,0,1-5.33,2c-.4.06-.79.11-1.18.14l-.83.06c-.58,0-1.13,0-1.64,0H7.42l-1.71-.1L3.38,27.95H8.73c.35,0,.69,0,1,0,.64,0,1.28-.09,1.91-.18a15.47,15.47,0,0,0,6.16-2.1,13.34,13.34,0,0,0,4.86-5.44,14.75,14.75,0,0,0,.77-1.91,14.23,14.23,0,0,0,.7-4.25A14,14,0,0,0,17.83,2.3Z"/><path d="M9.71,23.67a9.48,9.48,0,0,0,2-.22l.36-.08a9.9,9.9,0,0,0,2.33-.93,9.69,9.69,0,0,0,2.15-1.62,10.31,10.31,0,0,0,1.75-2.34l.34-.62H15.7l-.13.17a7.81,7.81,0,0,1-3.5,2.75l-.4.14a5.05,5.05,0,0,1-1,.23c-.43,0-.76.07-1,.07a6.59,6.59,0,0,1-2.63-.56,7.4,7.4,0,0,1-2.27-1.53A7.7,7.7,0,0,1,3.2,16.86a6.56,6.56,0,0,1-.59-2.76,6.8,6.8,0,0,1,.56-2.7A7.88,7.88,0,0,1,4.68,9.1,7.43,7.43,0,0,1,6.92,7.5a6.43,6.43,0,0,1,2.74-.6,9.2,9.2,0,0,1,1.1.09,5.83,5.83,0,0,1,.91.2l.6.21A7.88,7.88,0,0,1,14,8.34,6.22,6.22,0,0,1,15.5,10l.13.18h2.84l-.25-.58a6.87,6.87,0,0,0-1-1.55,9.22,9.22,0,0,0-1.77-1.66A10.69,10.69,0,0,0,12.94,5a8.08,8.08,0,0,0-1.26-.36,10.09,10.09,0,0,0-5.74.53,9.4,9.4,0,0,0-3.09,2,9.64,9.64,0,0,0-2.08,3A9.51,9.51,0,0,0,0,14.07,9.23,9.23,0,0,0,.79,17.9a9.68,9.68,0,0,0,2.12,3,9.9,9.9,0,0,0,3.08,2A9.6,9.6,0,0,0,9.71,23.67Z"/></g></g></svg>