<svg xmlns="http://www.w3.org/2000/svg" viewBox="0 0 43.37 37.51"><defs><style>.cls-1{fill:#e5e5e4;}</style></defs><title>Document</title><g id="Layer_2" data-name="Layer 2"><g id="Layer_1-2" data-name="Layer 1"><path class="cls-1" d="M21.69,37.51a1,1,0,0,1-.43-.1L.57,27.62a1,1,0,1,1,.86-1.81l20.26,9.6,20.26-9.6a1,1,0,1,1,.86,1.81l-20.69,9.8A1,1,0,0,1,21.69,37.51Zm0-8.36a1,1,0,0,1-.43-.1L.57,19.26a1,1,0,0,1,.86-1.81L21.69,27l20.26-9.59a1,1,0,0,1,.86,1.81l-20.69,9.8A1,1,0,0,1,21.69,29.15Zm0-8.54a1,1,0,0,1-.42-.09L1.19,11.21a1,1,0,0,1,0-1.81L21.27.09a1,1,0,0,1,.84,0L42.18,9.4a1,1,0,0,1,0,1.81L22.11,20.52A1,1,0,0,1,21.69,20.61ZM4,10.3l17.69,8.2,17.7-8.2L21.69,2.1Z"/></g></g></svg>