<svg xmlns="http://www.w3.org/2000/svg" xmlns:xlink="http://www.w3.org/1999/xlink" viewBox="0 0 999.99 844.59"><defs><style>.cls-1,.cls-3{fill:none;}.cls-2{clip-path:url(#clip-path);}.cls-3{stroke:#a8763e;stroke-miterlimit:10;}</style><clipPath id="clip-path"><rect class="cls-1" x="154.04" y="160.61" width="531.04" height="395.68"/></clipPath></defs><title>formBackgroun</title><g id="Layer_2" data-name="Layer 2"><g id="Layer_1-2" data-name="Layer 1"><g class="cls-2"><line class="cls-3" x1="581.56" y1="0.35" x2="999.63" y2="418.43"/><line class="cls-3" x1="577.71" y1="3.49" x2="995.47" y2="421.25"/><line class="cls-3" x1="573.86" y1="6.63" x2="991.3" y2="424.07"/><line class="cls-3" x1="570.01" y1="9.76" x2="987.14" y2="426.89"/><line class="cls-3" x1="566.17" y1="12.9" x2="982.97" y2="429.71"/><line class="cls-3" x1="562.32" y1="16.04" x2="978.81" y2="432.53"/><line class="cls-3" x1="558.47" y1="19.17" x2="974.64" y2="435.35"/><line class="cls-3" x1="554.62" y1="22.31" x2="970.47" y2="438.17"/><line class="cls-3" x1="550.77" y1="25.45" x2="966.31" y2="440.99"/><line class="cls-3" x1="546.92" y1="28.58" x2="962.14" y2="443.81"/><line class="cls-3" x1="543.07" y1="31.72" x2="957.98" y2="446.63"/><line class="cls-3" x1="539.22" y1="34.86" x2="953.81" y2="449.45"/><line class="cls-3" x1="535.37" y1="37.99" x2="949.65" y2="452.27"/><line class="cls-3" x1="531.52" y1="41.13" x2="945.48" y2="455.09"/><line class="cls-3" x1="527.67" y1="44.27" x2="941.31" y2="457.91"/><line class="cls-3" x1="523.83" y1="47.4" x2="937.15" y2="460.73"/><line class="cls-3" x1="519.98" y1="50.54" x2="932.98" y2="463.55"/><line class="cls-3" x1="516.13" y1="53.68" x2="928.82" y2="466.37"/><line class="cls-3" x1="512.28" y1="56.81" x2="924.65" y2="469.19"/><line class="cls-3" x1="508.43" y1="59.95" x2="920.49" y2="472.01"/><line class="cls-3" x1="504.58" y1="63.09" x2="916.32" y2="474.83"/><line class="cls-3" x1="500.73" y1="66.22" x2="912.15" y2="477.65"/><line class="cls-3" x1="496.88" y1="69.36" x2="907.99" y2="480.47"/><line class="cls-3" x1="493.03" y1="72.5" x2="903.82" y2="483.29"/><line class="cls-3" x1="489.18" y1="75.63" x2="899.66" y2="486.11"/><line class="cls-3" x1="485.33" y1="78.77" x2="895.49" y2="488.93"/><line class="cls-3" x1="481.49" y1="81.91" x2="891.33" y2="491.75"/><line class="cls-3" x1="477.64" y1="85.04" x2="887.16" y2="494.57"/><line class="cls-3" x1="473.79" y1="88.18" x2="882.99" y2="497.39"/><line class="cls-3" x1="469.94" y1="91.32" x2="878.83" y2="500.21"/><line class="cls-3" x1="466.09" y1="94.45" x2="874.66" y2="503.03"/><line class="cls-3" x1="462.24" y1="97.59" x2="870.5" y2="505.85"/><line class="cls-3" x1="458.39" y1="100.73" x2="866.33" y2="508.67"/><line class="cls-3" x1="454.54" y1="103.86" x2="862.17" y2="511.49"/><line class="cls-3" x1="450.69" y1="107" x2="858" y2="514.31"/><line class="cls-3" x1="446.84" y1="110.14" x2="853.83" y2="517.13"/><line class="cls-3" x1="443" y1="113.27" x2="849.67" y2="519.95"/><line class="cls-3" x1="439.15" y1="116.41" x2="845.5" y2="522.77"/><line class="cls-3" x1="435.3" y1="119.55" x2="841.34" y2="525.59"/><line class="cls-3" x1="431.45" y1="122.68" x2="837.17" y2="528.41"/><line class="cls-3" x1="427.6" y1="125.82" x2="833.01" y2="531.23"/><line class="cls-3" x1="423.75" y1="128.96" x2="828.84" y2="534.05"/><line class="cls-3" x1="419.9" y1="132.09" x2="824.67" y2="536.87"/><line class="cls-3" x1="416.05" y1="135.23" x2="820.51" y2="539.69"/><line class="cls-3" x1="412.2" y1="138.37" x2="816.34" y2="542.51"/><line class="cls-3" x1="408.35" y1="141.5" x2="812.18" y2="545.33"/><line class="cls-3" x1="404.5" y1="144.64" x2="808.01" y2="548.15"/><line class="cls-3" x1="400.66" y1="147.77" x2="803.85" y2="550.96"/><line class="cls-3" x1="396.81" y1="150.91" x2="799.68" y2="553.78"/><line class="cls-3" x1="392.96" y1="154.05" x2="795.51" y2="556.6"/><line class="cls-3" x1="389.11" y1="157.18" x2="791.35" y2="559.42"/><line class="cls-3" x1="385.26" y1="160.32" x2="787.18" y2="562.24"/><line class="cls-3" x1="381.41" y1="163.46" x2="783.02" y2="565.06"/><line class="cls-3" x1="377.56" y1="166.59" x2="778.85" y2="567.88"/><line class="cls-3" x1="373.71" y1="169.73" x2="774.69" y2="570.7"/><line class="cls-3" x1="369.86" y1="172.87" x2="770.52" y2="573.52"/><line class="cls-3" x1="366.01" y1="176" x2="766.35" y2="576.34"/><line class="cls-3" x1="362.16" y1="179.14" x2="762.19" y2="579.16"/><line class="cls-3" x1="358.32" y1="182.28" x2="758.02" y2="581.98"/><line class="cls-3" x1="354.47" y1="185.41" x2="753.86" y2="584.8"/><line class="cls-3" x1="350.62" y1="188.55" x2="749.69" y2="587.62"/><line class="cls-3" x1="346.77" y1="191.69" x2="745.53" y2="590.44"/><line class="cls-3" x1="342.92" y1="194.82" x2="741.36" y2="593.26"/><line class="cls-3" x1="339.07" y1="197.96" x2="737.19" y2="596.08"/><line class="cls-3" x1="335.22" y1="201.1" x2="733.03" y2="598.9"/><line class="cls-3" x1="331.37" y1="204.23" x2="728.86" y2="601.72"/><line class="cls-3" x1="327.52" y1="207.37" x2="724.7" y2="604.54"/><line class="cls-3" x1="323.67" y1="210.51" x2="720.53" y2="607.36"/><line class="cls-3" x1="319.83" y1="213.64" x2="716.37" y2="610.18"/><line class="cls-3" x1="315.98" y1="216.78" x2="712.2" y2="613"/><line class="cls-3" x1="312.13" y1="219.92" x2="708.03" y2="615.82"/><line class="cls-3" x1="308.28" y1="223.05" x2="703.87" y2="618.64"/><line class="cls-3" x1="304.43" y1="226.19" x2="699.7" y2="621.46"/><line class="cls-3" x1="300.58" y1="229.33" x2="695.54" y2="624.28"/><line class="cls-3" x1="296.73" y1="232.46" x2="691.37" y2="627.1"/><line class="cls-3" x1="292.88" y1="235.6" x2="687.21" y2="629.92"/><line class="cls-3" x1="289.03" y1="238.74" x2="683.04" y2="632.74"/><line class="cls-3" x1="285.18" y1="241.87" x2="678.87" y2="635.56"/><line class="cls-3" x1="281.33" y1="245.01" x2="674.71" y2="638.38"/><line class="cls-3" x1="277.49" y1="248.15" x2="670.54" y2="641.2"/><line class="cls-3" x1="273.64" y1="251.28" x2="666.38" y2="644.02"/><line class="cls-3" x1="269.79" y1="254.42" x2="662.21" y2="646.84"/><line class="cls-3" x1="265.94" y1="257.56" x2="658.05" y2="649.66"/><line class="cls-3" x1="262.09" y1="260.69" x2="653.88" y2="652.48"/><line class="cls-3" x1="258.24" y1="263.83" x2="649.71" y2="655.3"/><line class="cls-3" x1="254.39" y1="266.97" x2="645.55" y2="658.12"/><line class="cls-3" x1="250.54" y1="270.1" x2="641.38" y2="660.94"/><line class="cls-3" x1="246.69" y1="273.24" x2="637.22" y2="663.76"/><line class="cls-3" x1="242.84" y1="276.38" x2="633.05" y2="666.58"/><line class="cls-3" x1="239" y1="279.51" x2="628.89" y2="669.4"/><line class="cls-3" x1="235.15" y1="282.65" x2="624.72" y2="672.22"/><line class="cls-3" x1="231.3" y1="285.79" x2="620.55" y2="675.04"/><line class="cls-3" x1="227.45" y1="288.92" x2="616.39" y2="677.86"/><line class="cls-3" x1="223.6" y1="292.06" x2="612.22" y2="680.68"/><line class="cls-3" x1="219.75" y1="295.2" x2="608.06" y2="683.5"/><line class="cls-3" x1="215.9" y1="298.33" x2="603.89" y2="686.32"/><line class="cls-3" x1="212.05" y1="301.47" x2="599.73" y2="689.14"/><line class="cls-3" x1="208.2" y1="304.61" x2="595.56" y2="691.96"/><line class="cls-3" x1="204.35" y1="307.74" x2="591.39" y2="694.78"/><line class="cls-3" x1="200.5" y1="310.88" x2="587.23" y2="697.6"/><line class="cls-3" x1="196.66" y1="314.02" x2="583.06" y2="700.42"/><line class="cls-3" x1="192.81" y1="317.15" x2="578.9" y2="703.24"/><line class="cls-3" x1="188.96" y1="320.29" x2="574.73" y2="706.06"/><line class="cls-3" x1="185.11" y1="323.43" x2="570.57" y2="708.88"/><line class="cls-3" x1="181.26" y1="326.56" x2="566.4" y2="711.7"/><line class="cls-3" x1="177.41" y1="329.7" x2="562.23" y2="714.52"/><line class="cls-3" x1="173.56" y1="332.84" x2="558.07" y2="717.34"/><line class="cls-3" x1="169.71" y1="335.97" x2="553.9" y2="720.16"/><line class="cls-3" x1="165.86" y1="339.11" x2="549.74" y2="722.98"/><line class="cls-3" x1="162.01" y1="342.25" x2="545.57" y2="725.8"/><line class="cls-3" x1="158.16" y1="345.38" x2="541.41" y2="728.62"/><line class="cls-3" x1="154.32" y1="348.52" x2="537.24" y2="731.44"/><line class="cls-3" x1="150.47" y1="351.66" x2="533.07" y2="734.26"/><line class="cls-3" x1="146.62" y1="354.79" x2="528.91" y2="737.08"/><line class="cls-3" x1="142.77" y1="357.93" x2="524.74" y2="739.9"/><line class="cls-3" x1="138.92" y1="361.07" x2="520.58" y2="742.72"/><line class="cls-3" x1="135.07" y1="364.2" x2="516.41" y2="745.54"/><line class="cls-3" x1="131.22" y1="367.34" x2="512.25" y2="748.36"/><line class="cls-3" x1="127.37" y1="370.48" x2="508.08" y2="751.18"/><line class="cls-3" x1="123.52" y1="373.61" x2="503.91" y2="754"/><line class="cls-3" x1="119.67" y1="376.75" x2="499.75" y2="756.82"/><line class="cls-3" x1="115.83" y1="379.89" x2="495.58" y2="759.64"/><line class="cls-3" x1="111.98" y1="383.02" x2="491.42" y2="762.46"/><line class="cls-3" x1="108.13" y1="386.16" x2="487.25" y2="765.28"/><line class="cls-3" x1="104.28" y1="389.3" x2="483.09" y2="768.1"/><line class="cls-3" x1="100.43" y1="392.43" x2="478.92" y2="770.92"/><line class="cls-3" x1="96.58" y1="395.57" x2="474.75" y2="773.74"/><line class="cls-3" x1="92.73" y1="398.71" x2="470.59" y2="776.56"/><line class="cls-3" x1="88.88" y1="401.84" x2="466.42" y2="779.38"/><line class="cls-3" x1="85.03" y1="404.98" x2="462.26" y2="782.2"/><line class="cls-3" x1="81.18" y1="408.11" x2="458.09" y2="785.02"/><line class="cls-3" x1="77.33" y1="411.25" x2="453.93" y2="787.84"/><line class="cls-3" x1="73.49" y1="414.39" x2="449.76" y2="790.66"/><line class="cls-3" x1="69.64" y1="417.52" x2="445.59" y2="793.48"/><line class="cls-3" x1="65.79" y1="420.66" x2="441.43" y2="796.3"/><line class="cls-3" x1="61.94" y1="423.8" x2="437.26" y2="799.12"/><line class="cls-3" x1="58.09" y1="426.93" x2="433.1" y2="801.94"/><line class="cls-3" x1="54.24" y1="430.07" x2="428.93" y2="804.76"/><line class="cls-3" x1="50.39" y1="433.21" x2="424.77" y2="807.58"/><line class="cls-3" x1="46.54" y1="436.34" x2="420.6" y2="810.4"/><line class="cls-3" x1="42.69" y1="439.48" x2="416.43" y2="813.22"/><line class="cls-3" x1="38.84" y1="442.62" x2="412.27" y2="816.04"/><line class="cls-3" x1="35" y1="445.75" x2="408.1" y2="818.86"/><line class="cls-3" x1="31.15" y1="448.89" x2="403.94" y2="821.68"/><line class="cls-3" x1="27.3" y1="452.03" x2="399.77" y2="824.5"/><line class="cls-3" x1="23.45" y1="455.16" x2="395.61" y2="827.32"/><line class="cls-3" x1="19.6" y1="458.3" x2="391.44" y2="830.14"/><line class="cls-3" x1="15.75" y1="461.44" x2="387.27" y2="832.96"/><line class="cls-3" x1="11.9" y1="464.57" x2="383.11" y2="835.78"/><line class="cls-3" x1="8.05" y1="467.71" x2="378.94" y2="838.6"/><line class="cls-3" x1="4.2" y1="470.85" x2="374.78" y2="841.42"/><line class="cls-3" x1="0.35" y1="473.98" x2="370.61" y2="844.24"/></g></g></g></svg>