<svg xmlns="http://www.w3.org/2000/svg" viewBox="0 0 26.66 32"><defs><style>.cls-1{fill:#e5e5e4;}</style></defs><title>Logout</title><g id="Layer_2" data-name="Layer 2"><g id="Layer_1-2" data-name="Layer 1"><path class="cls-1" d="M12.79,20.46a.75.75,0,0,0-.74.74v6.43L1.51,30.25V1.71L12,4.33v6.43a.74.74,0,1,0,1.48,0v-7A.79.79,0,0,0,13,3L.94,0A.71.71,0,0,0,.3.16.82.82,0,0,0,0,.77V31.23a.76.76,0,0,0,.3.61A.8.8,0,0,0,.77,32a.25.25,0,0,0,.17,0l12-3a.73.73,0,0,0,.57-.74v-7A.75.75,0,0,0,12.79,20.46Z"/><path class="cls-1" d="M26.45,15.47,20.16,9.18a.76.76,0,0,0-1.08,1.08l5,5H7.44a.74.74,0,0,0,0,1.48H24.13l-5,5a.75.75,0,0,0,0,1.08.79.79,0,0,0,.54.24.72.72,0,0,0,.54-.24l6.29-6.29A.82.82,0,0,0,26.45,15.47Z"/></g></g></svg>