<svg xmlns="http://www.w3.org/2000/svg" viewBox="0 0 33.01 33.06"><defs><style>.cls-1{fill:#e5e5e4;}</style></defs><title>pencil</title><g id="Layer_2" data-name="Layer 2"><g id="Layer_1-2" data-name="Layer 1"><path class="cls-1" d="M1.37,33.06a.88.88,0,0,0,.36,0l9.48-2.77a2.82,2.82,0,0,0,1.36-.82L32.11,9.9A3.19,3.19,0,0,0,33,7.63a3.08,3.08,0,0,0-.91-2.22L27.62.92a3.2,3.2,0,0,0-4.49,0L3.63,20.46a3.76,3.76,0,0,0-.82,1.36L.05,31.3a1.4,1.4,0,0,0,.36,1.36A1.38,1.38,0,0,0,1.37,33.06ZM19.91,8,25,13.16,11.57,26.63,6.44,21.5Zm5.21-5.21a.49.49,0,0,1,.32-.14.41.41,0,0,1,.32.14l4.49,4.49a.79.79,0,0,1,.14.32.38.38,0,0,1-.14.32L27,11.21,21.86,6.09ZM5,23.91,9.12,28,3.36,29.66Z"/></g></g></svg>