<svg xmlns="http://www.w3.org/2000/svg" viewBox="0 0 44.47 44.47"><defs><style>.cls-1{fill:none;stroke:#e5e5e4;stroke-miterlimit:10;stroke-width:1.47px;}</style></defs><title>Settings</title><g id="Layer_2" data-name="Layer 2"><g id="Layer_1-2" data-name="Layer 1"><path class="cls-1" d="M18.33.74a.5.5,0,0,0-.47.37L16.59,6.62c-.47.17-.93.37-1.37.58l-4.81-3a.5.5,0,0,0-.61.08L4.26,9.79a.5.5,0,0,0-.06.61l3,4.79c-.21.45-.39.9-.56,1.37L1.12,17.84a.5.5,0,0,0-.38.49v7.82a.5.5,0,0,0,.38.47l5.51,1.27c.17.47.35.94.56,1.39l-3,4.79a.5.5,0,0,0,.06.6l5.53,5.53a.5.5,0,0,0,.61.08l4.81-3c.45.21.91.41,1.37.58l1.27,5.51a.5.5,0,0,0,.47.38h7.82a.5.5,0,0,0,.47-.38l1.27-5.51c.47-.17.93-.37,1.37-.58l4.81,3a.5.5,0,0,0,.61-.08l5.53-5.53a.5.5,0,0,0,.06-.6l-3-4.79c.21-.45.39-.92.56-1.39l5.51-1.27a.5.5,0,0,0,.38-.47V18.33a.5.5,0,0,0-.38-.49l-5.51-1.27c-.17-.47-.35-.92-.56-1.37l3-4.79a.5.5,0,0,0-.06-.61L34.68,4.26a.5.5,0,0,0-.61-.08l-4.81,3c-.45-.21-.91-.41-1.37-.58L26.62,1.1a.5.5,0,0,0-.47-.37Zm.38,1h7.05L27,7.09a.5.5,0,0,0,.32.35,15.47,15.47,0,0,1,1.79.73.5.5,0,0,0,.47,0l4.67-2.93,5,5-2.93,4.67a.5.5,0,0,0,0,.47A15.55,15.55,0,0,1,37,17.15a.5.5,0,0,0,.35.32l5.37,1.24v7L37.38,27a.5.5,0,0,0-.35.32,15.78,15.78,0,0,1-.75,1.8.5.5,0,0,0,0,.47l2.92,4.67-5,5L29.58,36.3a.5.5,0,0,0-.47,0,15.47,15.47,0,0,1-1.79.73.5.5,0,0,0-.32.35l-1.24,5.39H18.71l-1.24-5.39a.5.5,0,0,0-.32-.35,15.47,15.47,0,0,1-1.79-.73.5.5,0,0,0-.47,0l-4.67,2.93-5-5,2.92-4.67a.5.5,0,0,0,0-.47,15.78,15.78,0,0,1-.75-1.8A.5.5,0,0,0,7.09,27L1.71,25.75v-7l5.37-1.24a.5.5,0,0,0,.35-.32,15.55,15.55,0,0,1,.75-1.79.5.5,0,0,0,0-.47L5.23,10.22l5-5,4.67,2.93a.5.5,0,0,0,.47,0,15.47,15.47,0,0,1,1.79-.73.5.5,0,0,0,.32-.35l1.24-5.37ZM22.24,12A10.26,10.26,0,1,0,32.5,22.24,10.27,10.27,0,0,0,22.24,12Zm0,1A9.28,9.28,0,1,1,13,22.24,9.28,9.28,0,0,1,22.24,13Z"/></g></g></svg>